<?xml version="1.0" encoding="utf-8"?>
<!-- Generator: Adobe Illustrator 19.1.0, SVG Export Plug-In . SVG Version: 6.00 Build 0)  -->
<svg version="1.1" id="Layer_1" xmlns="http://www.w3.org/2000/svg" xmlns:xlink="http://www.w3.org/1999/xlink" x="0px" y="0px"
	 viewBox="0 0 35.1 35.1" style="enable-background:new 0 0 35.1 35.1;" xml:space="preserve">
<style type="text/css">
	.st0{fill:#CCCBCB;}
	.st1{fill:#FFFFFF;}
</style>
<path class="st0" d="M32.1,35.1H3c-1.7,0-3-1.4-3-3V3c0-1.7,1.3-3,3-3h29.1c1.7,0,3,1.4,3,3v29.1C35.1,33.8,33.8,35.1,32.1,35.1z"/>
<path class="st1" d="M29.9,23.8c-0.5,1.5-1.2,3-2.2,4.4c-1.5,2.3-3.1,3.5-4.6,3.5c-0.6,0-1.4-0.2-2.5-0.6c-1-0.4-1.9-0.6-2.7-0.6
	c-0.7,0-1.6,0.2-2.5,0.6c-1,0.4-1.7,0.6-2.3,0.6c-1.8,0-3.6-1.5-5.4-4.6c-1.7-3.1-2.6-6.1-2.6-8.9c0-2.7,0.7-4.9,2-6.7
	c1.3-1.7,3-2.6,5.1-2.6c0.9,0,1.9,0.2,3.1,0.5c1.2,0.4,2.1,0.5,2.5,0.5c0.5,0,1.4-0.2,2.5-0.6c1.2-0.4,2.2-0.6,3.1-0.6
	c1.4,0,2.7,0.4,3.8,1.2c0.6,0.4,1.2,1,1.8,1.8c-0.9,0.8-1.6,1.5-2,2.1c-0.8,1.1-1.2,2.3-1.2,3.7c0,1.5,0.4,2.8,1.2,4
	S28.9,23.5,29.9,23.8z M23.3,2.9c0,0.7-0.2,1.5-0.5,2.4c-0.4,0.9-0.9,1.7-1.7,2.5c-0.6,0.6-1.3,1.1-1.9,1.3
	c-0.4,0.1-1.1,0.2-1.8,0.3c0-1.8,0.5-3.3,1.4-4.6c0.9-1.3,2.4-2.1,4.4-2.6c0,0,0,0.1,0,0.2c0,0.1,0,0.2,0,0.2c0,0,0,0.1,0,0.2
	S23.3,2.9,23.3,2.9z"/>
</svg>
