<?xml version="1.0" encoding="utf-8"?>
<!-- Generator: Adobe Illustrator 17.0.2, SVG Export Plug-In . SVG Version: 6.00 Build 0)  -->
<!DOCTYPE svg PUBLIC "-//W3C//DTD SVG 1.1//EN" "http://www.w3.org/Graphics/SVG/1.1/DTD/svg11.dtd">
<svg version="1.1" id="Layer_1" xmlns="http://www.w3.org/2000/svg" xmlns:xlink="http://www.w3.org/1999/xlink" x="0px" y="0px"
	 width="35px" height="17px" viewBox="0 0 35 17" enable-background="new 0 0 35 17" xml:space="preserve">
<g>
	<polygon fill="#004E74" points="30.429,0 0.021,0 4.614,8.542 0.021,17 30.429,17 35.021,8.542 	"/>
	<g>
		<g enable-background="new    ">
			<path fill="#FFFFFF" d="M10.704,8.595H7.946v2.772h3.213v0.844H6.966V4.39h4.139v0.844H7.946v2.519h2.758
				C10.704,7.753,10.704,8.595,10.704,8.595z"/>
			<path fill="#FFFFFF" d="M14.602,7.387l1.467-2.997h1.151l-2.029,3.878l2.072,3.943h-1.162L14.602,9.16l-1.505,3.051h-1.162
				l2.083-3.943l-2.04-3.878h1.146L14.602,7.387z"/>
			<path fill="#FFFFFF" d="M23.208,9.725c-0.043,0.838-0.277,1.479-0.704,1.925s-1.029,0.669-1.808,0.669
				c-0.782,0-1.403-0.298-1.863-0.895c-0.461-0.596-0.69-1.404-0.69-2.425V7.581c0-1.017,0.237-1.821,0.71-2.411
				c0.472-0.592,1.118-0.887,1.936-0.887c0.753,0,1.336,0.226,1.749,0.677c0.412,0.451,0.636,1.098,0.672,1.938h-0.991
				c-0.043-0.637-0.176-1.092-0.401-1.363c-0.225-0.272-0.568-0.408-1.028-0.408c-0.533,0-0.941,0.208-1.227,0.625
				c-0.285,0.417-0.428,1.029-0.428,1.834v1.435c0,0.791,0.133,1.398,0.399,1.821c0.266,0.422,0.654,0.633,1.164,0.633
				c0.511,0,0.878-0.127,1.103-0.381s0.364-0.711,0.418-1.369H23.208z"/>
		</g>
	</g>
</g>
</svg>
