<?xml version="1.0" encoding="utf-8"?>
<!-- Generator: Adobe Illustrator 19.1.0, SVG Export Plug-In . SVG Version: 6.00 Build 0)  -->
<svg version="1.1" id="Layer_1" xmlns="http://www.w3.org/2000/svg" xmlns:xlink="http://www.w3.org/1999/xlink" x="0px" y="0px"
	 viewBox="0 0 35.1 35.1" style="enable-background:new 0 0 35.1 35.1;" xml:space="preserve">
<style type="text/css">
	.st0{fill:#CCCBCB;}
	.st1{fill:#FFFFFF;}
</style>
<path class="st0" d="M32.1,35.1H3c-1.7,0-3-1.4-3-3V3c0-1.7,1.3-3,3-3h29.1c1.7,0,3,1.4,3,3v29.1C35.1,33.8,33.8,35.1,32.1,35.1z"/>
<path class="st1" d="M15.9,10.1c-0.1,0-0.2,0.1-0.2,0.2c0,0.1-0.1,0.1-0.1,0.1c-0.1,0-0.1,0-0.1-0.1c0-0.1,0.1-0.2,0.3-0.2H15.9z
	 M17.3,10.3c0,0-0.1,0-0.2-0.1c-0.1-0.1-0.2-0.1-0.3-0.1c0.2-0.1,0.4-0.1,0.5,0C17.4,10.2,17.3,10.2,17.3,10.3z M25.1,22.4
	c0-0.2-0.3-0.4-0.9-0.6c0-0.2,0.1-0.3,0.1-0.4c0-0.1,0.1-0.3,0.1-0.4c0-0.1,0-0.3,0-0.3s0-0.2,0-0.3c0-0.1,0-0.3,0-0.3
	s0-0.2-0.1-0.3c0-0.2-0.1-0.3-0.1-0.3c0,0,0-0.2-0.1-0.4s-0.1-0.4-0.1-0.4c-0.1-0.5-0.3-1-0.7-1.6s-0.8-1-1.1-1.2
	c0.2,0.2,0.5,0.6,0.9,1.3c0.9,1.7,1.2,3.1,0.8,4.3c-0.1,0.4-0.4,0.6-0.8,0.6c-0.3,0-0.5-0.1-0.6-0.3c-0.1-0.2-0.1-0.7-0.1-1.3
	s-0.1-1.2-0.2-1.7c-0.1-0.4-0.2-0.8-0.3-1.1s-0.2-0.5-0.3-0.7c-0.1-0.2-0.2-0.3-0.2-0.4c-0.1-0.1-0.1-0.2-0.2-0.2s-0.1-0.1-0.1-0.1
	c-0.1-0.6-0.3-1.2-0.5-1.6c-0.2-0.4-0.3-0.7-0.5-0.9s-0.3-0.3-0.4-0.5s-0.2-0.4-0.2-0.6c0-0.2,0-0.5,0.1-0.8s0.1-0.6,0.1-0.8
	c-0.1-0.2-0.3-0.3-0.7-0.4c-0.2,0-0.4-0.1-0.7-0.3c-0.3-0.2-0.5-0.2-0.5-0.2c-0.1,0-0.1-0.1-0.2-0.4c0-0.3,0-0.5,0.1-0.8
	c0.1-0.3,0.3-0.4,0.6-0.4c0.4,0,0.6,0.1,0.8,0.5s0.2,0.6,0.1,0.9c-0.1,0.2-0.1,0.3,0,0.4c0.1,0.1,0.2,0.1,0.5,0
	c0.1,0,0.2-0.2,0.2-0.6V9.2c-0.1-0.3-0.1-0.6-0.2-0.8c-0.1-0.2-0.2-0.4-0.3-0.5c-0.1-0.1-0.3-0.2-0.4-0.2c-0.1,0-0.3-0.1-0.4-0.1
	c-1.1,0.1-1.6,0.8-1.4,2.1c0,0.2,0,0.2,0,0.2c-0.1-0.1-0.2-0.1-0.5-0.2c-0.2,0-0.4,0-0.5,0S16,9.8,16,9.7c0-0.6-0.1-1.1-0.2-1.4
	c-0.2-0.3-0.4-0.5-0.7-0.5c-0.3,0-0.5,0.1-0.6,0.4c-0.1,0.3-0.2,0.6-0.3,0.9c0,0.2,0,0.3,0.1,0.6c0,0.2,0.1,0.4,0.2,0.6
	c0.1,0.2,0.2,0.2,0.2,0.2c0.1,0,0.2-0.1,0.2-0.2c0-0.1,0-0.1-0.1-0.1c-0.1,0-0.2-0.1-0.2-0.2c-0.1-0.1-0.1-0.3-0.1-0.5
	c0-0.2,0-0.4,0.1-0.6s0.3-0.2,0.5-0.2c0.2,0,0.3,0.1,0.4,0.3c0.1,0.2,0.2,0.4,0.1,0.6s0,0.3,0,0.3c-0.2,0.2-0.4,0.3-0.5,0.4
	c-0.1,0.1-0.2,0.2-0.4,0.4s-0.3,0.2-0.3,0.2c-0.1,0.1-0.2,0.3-0.2,0.4c0,0.1,0,0.2,0.1,0.3c0.1,0.1,0.3,0.2,0.4,0.3
	c0.1,0.1,0.2,0.2,0.2,0.3s0.1,0.1,0.3,0.2s0.3,0.1,0.5,0.1c0.5,0,1-0.1,1.6-0.2c0,0,0.1,0,0.4-0.1s0.4-0.1,0.5-0.2s0.3-0.1,0.5-0.2
	c0.2-0.1,0.3-0.2,0.3-0.3c0.1-0.1,0.2-0.2,0.3-0.1c0.1,0,0.1,0.1,0.1,0.1c0,0.1,0,0.1,0,0.2c0,0.1-0.1,0.1-0.3,0.1
	c-0.2,0.1-0.5,0.2-0.9,0.3c-0.4,0.2-0.6,0.3-0.7,0.3c-0.5,0.2-0.8,0.3-1.1,0.4c-0.3,0.1-0.7,0-1.2,0c-0.1,0-0.1,0-0.1,0
	c0,0,0.1,0.1,0.3,0.3c0.3,0.2,0.6,0.4,1,0.3c0.2,0,0.4,0,0.6-0.1c0.2-0.1,0.4-0.1,0.6-0.2c0.2-0.1,0.3-0.2,0.5-0.3s0.3-0.2,0.5-0.3
	s0.3-0.1,0.4-0.2s0.2-0.1,0.3,0c0.1,0,0.1,0.1,0.1,0.2c0,0,0,0,0,0.1c0,0,0,0.1-0.1,0.1c0,0-0.1,0-0.1,0.1c0,0-0.1,0-0.1,0.1
	s-0.1,0.1-0.1,0.1c0,0-0.1,0-0.2,0.1c-0.1,0-0.1,0.1-0.1,0.1c-0.3,0.1-0.6,0.4-1,0.7s-0.8,0.5-1,0.7c-0.3,0.1-0.5,0.1-0.8,0
	c-0.2-0.1-0.5-0.5-1-1.1c-0.2-0.3-0.4-0.4-0.4-0.3c0,0,0,0.1,0,0.2c0,0.3-0.1,0.5-0.2,0.9s-0.3,0.6-0.5,0.9
	c-0.1,0.2-0.3,0.5-0.3,0.9c-0.1,0.4,0,0.7,0.2,1c-0.2,0.1-0.6,0.5-1,1.4c-0.4,0.9-0.7,1.6-0.7,2.2c0,0.2,0,0.5,0,1.1s0,0.8-0.1,0.9
	c-0.1,0.2-0.2,0.3-0.4,0c-0.3-0.3-0.5-0.8-0.6-1.5c0-0.3,0-0.6,0.1-0.9c0-0.2,0-0.3,0-0.3l-0.1,0.1c-0.4,0.7-0.3,1.5,0.2,2.6
	c0.1,0.1,0.2,0.3,0.4,0.4c0.2,0.2,0.3,0.3,0.4,0.3c0.2,0.2,0.7,0.7,1.6,1.4c0.9,0.7,1.3,1.1,1.4,1.2c0.2,0.2,0.3,0.4,0.3,0.6
	c0,0.2-0.1,0.5-0.2,0.7c-0.2,0.2-0.4,0.3-0.7,0.4c0.1,0.2,0.2,0.4,0.4,0.7s0.4,0.6,0.4,0.8c0.1,0.3,0.1,0.6,0.1,1.1
	c0.5-0.2,0.5-0.7,0.1-1.4c0-0.1-0.1-0.2-0.2-0.2c-0.1-0.1-0.1-0.1-0.1-0.2c0,0,0-0.1,0-0.1c0-0.1,0.1-0.1,0.2-0.1s0.2,0,0.3,0
	c0.5,0.5,1.3,0.7,2.6,0.6c1.4-0.2,2.3-0.6,2.7-1.3c0.2-0.4,0.4-0.5,0.5-0.5c0.1,0.1,0.2,0.3,0.2,0.8c0,0.3-0.1,0.7-0.4,1.4
	c-0.1,0.2-0.1,0.4-0.1,0.6s0.2,0.2,0.4,0.2c0-0.2,0.1-0.6,0.2-1.2s0.2-1.1,0.2-1.4c0-0.2,0-0.6-0.1-1.1c-0.1-0.5-0.1-1-0.1-1.5
	s0.1-0.8,0.4-1.1c0.2-0.2,0.4-0.3,0.8-0.3c0-0.4,0.2-0.7,0.5-0.8c0.3-0.2,0.7-0.2,1.1-0.2C24.5,22.1,24.9,22.3,25.1,22.4z M15.4,9.6
	c0-0.2,0-0.3,0-0.5S15.2,9,15.1,8.9C15,8.9,15,9,15,9.1c0,0.1,0,0.1,0.1,0.1c0.1,0,0.1,0.1,0.1,0.2C15.2,9.6,15.2,9.7,15.4,9.6
	C15.3,9.7,15.4,9.7,15.4,9.6z M19.1,9.4c0-0.1,0-0.2-0.1-0.3s-0.1-0.2-0.2-0.2c-0.1,0-0.1-0.1-0.1,0c-0.1,0-0.2,0-0.1,0.1l0.1,0
	c0.1,0,0.2,0.2,0.3,0.5C18.9,9.5,19,9.5,19.1,9.4L19.1,9.4z M28.7,26.5c0.2,0.1,0.4,0.3,0.5,0.4c0.1,0.1,0.2,0.3,0.2,0.4
	c0,0.1,0,0.2,0,0.3S29.2,27.9,29,28c-0.1,0.1-0.2,0.2-0.4,0.3c-0.1,0.1-0.3,0.2-0.5,0.3c-0.2,0.1-0.4,0.2-0.5,0.3
	c-0.1,0.1-0.3,0.1-0.5,0.2c-0.2,0.1-0.3,0.2-0.4,0.2c-0.4,0.2-0.8,0.5-1.3,0.9c-0.5,0.4-0.9,0.7-1.2,1c-0.2,0.2-0.5,0.3-1.1,0.3
	c-0.5,0-1,0-1.4-0.2c-0.2-0.1-0.3-0.2-0.5-0.4c-0.1-0.1-0.2-0.3-0.3-0.4s-0.2-0.2-0.3-0.3C20.7,30,20.4,30,20.1,30c-0.5,0-1.1,0-2,0
	c-0.2,0-0.5,0-0.9,0c-0.4,0-0.7,0-0.9,0c-0.5,0-0.9,0.1-1.2,0.2c-0.4,0.1-0.6,0.3-0.8,0.5s-0.4,0.3-0.7,0.4s-0.5,0.2-0.8,0.2
	c-0.3,0-0.9-0.2-1.7-0.5c-0.8-0.3-1.6-0.5-2.3-0.7c-0.2,0-0.5-0.1-0.8-0.1s-0.6-0.1-0.8-0.1c-0.2,0-0.4-0.1-0.6-0.1
	c-0.2-0.1-0.4-0.1-0.5-0.2c-0.1-0.1-0.2-0.2-0.3-0.3c-0.1-0.2-0.1-0.6,0.1-1c0.2-0.4,0.3-0.7,0.3-0.8c0-0.2,0-0.4-0.1-0.6
	c-0.1-0.2-0.1-0.5-0.2-0.7c-0.1-0.2-0.1-0.4-0.1-0.6c0-0.2,0.1-0.3,0.2-0.4C6.3,25,6.5,24.9,7,24.9c0.4,0,0.8-0.1,0.9-0.2
	c0.3-0.2,0.5-0.4,0.6-0.5s0.2-0.4,0.2-0.8C9,24.1,8.8,24.7,8.3,25c-0.3,0.2-0.8,0.3-1.3,0.2c-0.4,0-0.6,0-0.7,0.2
	c-0.1,0.2-0.1,0.4,0.1,0.9c0,0.1,0.1,0.2,0.1,0.3c0.1,0.1,0.1,0.2,0.1,0.3c0,0.1,0,0.1,0.1,0.3s0,0.2,0,0.3c0,0.2-0.1,0.4-0.3,0.8
	s-0.2,0.6-0.2,0.7c0,0.2,0.2,0.3,0.6,0.4c0.2,0.1,0.6,0.2,1.3,0.3c0.7,0.1,1.2,0.2,1.5,0.3c0.2,0.1,0.6,0.2,1.1,0.3
	c0.5,0.2,0.9,0.3,1.3,0.4c0.3,0.1,0.6,0.1,0.9,0.1c0.4-0.1,0.8-0.2,1-0.4c0.2-0.2,0.3-0.5,0.4-0.7c0-0.3,0-0.6-0.1-0.9
	c-0.1-0.3-0.2-0.6-0.3-0.8s-0.2-0.4-0.3-0.6c-1.2-2-2.1-3.2-2.6-3.7c-0.7-0.8-1.3-1-1.7-0.6C9.1,23,9,22.9,9,22.7c0-0.2,0-0.4,0-0.6
	c0-0.3,0.1-0.6,0.2-0.8c0.1-0.2,0.2-0.5,0.4-0.7c0.2-0.2,0.3-0.5,0.3-0.6c0.1-0.2,0.2-0.6,0.4-1.1c0.2-0.5,0.3-0.9,0.5-1.2
	c0.1-0.3,0.3-0.6,0.5-0.9s0.4-0.6,0.6-0.8c1.1-1.5,1.8-2.5,1.9-3c-0.1-1.2-0.2-2.8-0.2-4.8c0-0.9,0.1-1.7,0.4-2.3s0.8-1.2,1.6-1.6
	c0.4-0.2,0.9-0.3,1.6-0.3c0.5,0,1.1,0.1,1.6,0.2c0.5,0.1,1,0.4,1.4,0.6c0.6,0.4,1.1,1.1,1.4,1.9C21.8,7.3,22,8,21.9,8.7
	c-0.1,1,0.1,2.1,0.5,3.3c0.4,1.2,1,2.3,2.1,3.4c0.6,0.6,1.1,1.4,1.5,2.5c0.5,1.1,0.8,2.1,0.9,3c0.1,0.5,0.1,0.9,0.1,1.3
	c0,0.4-0.1,0.7-0.2,0.9c-0.1,0.2-0.2,0.3-0.3,0.3c-0.1,0-0.2,0.1-0.4,0.3c-0.1,0.2-0.3,0.4-0.4,0.5c-0.1,0.2-0.3,0.4-0.6,0.5
	c-0.3,0.2-0.6,0.2-0.9,0.2c-0.2,0-0.3,0-0.5-0.1c-0.1,0-0.3-0.1-0.3-0.2c-0.1-0.1-0.2-0.2-0.2-0.2s-0.1-0.2-0.2-0.3
	c-0.1-0.1-0.1-0.3-0.1-0.3c-0.2-0.4-0.4-0.5-0.6-0.5c-0.2,0.1-0.3,0.3-0.4,0.8s-0.1,0.9,0.1,1.5c0.2,0.7,0.2,1.7,0,3
	c-0.1,0.7,0,1.2,0.3,1.6c0.3,0.4,0.7,0.5,1.1,0.5c0.5,0,0.9-0.2,1.3-0.5c0.6-0.5,1.1-0.8,1.4-1c0.3-0.2,0.8-0.4,1.6-0.7
	c0.5-0.2,0.9-0.4,1.2-0.6c0.2-0.2,0.3-0.4,0.3-0.5s-0.2-0.3-0.4-0.4c-0.2-0.1-0.5-0.3-0.8-0.4c-0.3-0.1-0.6-0.4-0.8-0.7
	s-0.2-0.8-0.2-1.1s0.1-0.6,0.2-0.7c0,0.3,0.1,0.6,0.1,0.9c0.1,0.3,0.1,0.5,0.2,0.6c0.1,0.2,0.2,0.3,0.3,0.4c0.1,0.1,0.2,0.2,0.3,0.3
	s0.2,0.1,0.3,0.2C28.5,26.5,28.6,26.5,28.7,26.5z"/>
</svg>
