<?xml version="1.0" encoding="utf-8"?>
<!-- Generator: Adobe Illustrator 19.1.0, SVG Export Plug-In . SVG Version: 6.00 Build 0)  -->
<svg version="1.1" id="Layer_1" xmlns="http://www.w3.org/2000/svg" xmlns:xlink="http://www.w3.org/1999/xlink" x="0px" y="0px"
	 viewBox="-288 388 35 17" style="enable-background:new -288 388 35 17;" xml:space="preserve">
<style type="text/css">
	.st0{fill:#004E74;}
	.st1{fill:#FFFFFF;}
</style>
<g>
	<polygon class="st0" points="-257.6,388 -288,388 -283.4,396.5 -288,405 -257.6,405 -253,396.5 	"/>
</g>
<g>
	<g>
		<path class="st1" d="M-280.1,397.1v3.1h-1v-7.8h2.5c0.7,0,1.3,0.2,1.7,0.7c0.4,0.4,0.6,1,0.6,1.7c0,0.8-0.2,1.3-0.6,1.7
			c-0.4,0.4-1,0.6-1.7,0.6H-280.1z M-280.1,396.3h1.5c0.4,0,0.8-0.1,1-0.4c0.2-0.3,0.3-0.6,0.3-1.1c0-0.5-0.1-0.8-0.4-1.1
			c-0.2-0.3-0.6-0.4-1-0.4h-1.5V396.3z"/>
		<path class="st1" d="M-272.6,397h-1.4v3.2h-1v-7.8h2.2c0.8,0,1.3,0.2,1.7,0.6c0.4,0.4,0.6,1,0.6,1.8c0,0.5-0.1,0.9-0.3,1.3
			c-0.2,0.4-0.5,0.6-0.9,0.8l1.5,3.3v0.1h-1.1L-272.6,397z M-274,396.2h1.2c0.4,0,0.7-0.1,1-0.4c0.2-0.3,0.4-0.6,0.4-1.1
			c0-1-0.5-1.5-1.4-1.5h-1.2V396.2z"/>
		<path class="st1" d="M-265.7,398.2c0-0.4-0.1-0.7-0.3-0.9c-0.2-0.2-0.6-0.4-1.1-0.6c-0.6-0.2-1-0.4-1.3-0.6
			c-0.3-0.2-0.5-0.5-0.7-0.7c-0.1-0.3-0.2-0.6-0.2-1c0-0.6,0.2-1.1,0.6-1.5c0.4-0.4,1-0.6,1.6-0.6c0.5,0,0.9,0.1,1.2,0.3
			c0.4,0.2,0.6,0.5,0.8,0.9s0.3,0.8,0.3,1.2h-1c0-0.5-0.1-0.9-0.3-1.1c-0.2-0.3-0.6-0.4-1-0.4c-0.4,0-0.7,0.1-0.9,0.3
			c-0.2,0.2-0.3,0.5-0.3,0.9c0,0.3,0.1,0.6,0.4,0.8c0.2,0.2,0.6,0.4,1.1,0.6c0.8,0.3,1.3,0.6,1.7,0.9c0.3,0.4,0.5,0.9,0.5,1.5
			c0,0.6-0.2,1.1-0.6,1.5c-0.4,0.4-1,0.6-1.7,0.6c-0.5,0-0.9-0.1-1.3-0.3c-0.4-0.2-0.7-0.5-0.9-0.8c-0.2-0.4-0.3-0.8-0.3-1.2h1
			c0,0.5,0.1,0.9,0.4,1.1s0.6,0.4,1.1,0.4c0.4,0,0.8-0.1,1-0.3C-265.8,398.9-265.7,398.6-265.7,398.2z"/>
	</g>
</g>
</svg>
