<?xml version="1.0" encoding="utf-8"?>
<!-- Generator: Adobe Illustrator 19.1.0, SVG Export Plug-In . SVG Version: 6.00 Build 0)  -->
<svg version="1.1" id="Layer_1" xmlns="http://www.w3.org/2000/svg" xmlns:xlink="http://www.w3.org/1999/xlink" x="0px" y="0px"
	 viewBox="0 0 35.1 35.1" style="enable-background:new 0 0 35.1 35.1;" xml:space="preserve">
<style type="text/css">
	.st0{fill:#CCCBCB;}
	.st1{fill:#FFFFFF;}
</style>
<path class="st0" d="M32.1,35.1H3c-1.7,0-3-1.4-3-3V3c0-1.7,1.3-3,3-3h29.1c1.7,0,3,1.4,3,3v29.1C35.1,33.8,33.8,35.1,32.1,35.1z"/>
<path class="st1" d="M15.3,18.6v10L4.8,27.1v-8.5H15.3z M15.3,7.2v10.1H4.8V8.6L15.3,7.2z M30.3,18.6v12l-13.9-1.9V18.6H30.3z
	 M30.3,5.1v12.2H16.4V7L30.3,5.1z"/>
</svg>
