<svg id="icons" xmlns="http://www.w3.org/2000/svg" viewBox="0 0 35 17"><defs><style>.cls-1{fill:#004e74;}.cls-2{fill:#fff;}</style></defs><title>XPLT badge_chevron_35x17</title><polygon class="cls-1" points="31.27 0 0 0 3.78 8.5 0 17 31.27 17 35 8.54 31.27 0"/><path class="cls-2" d="M861,431.43l1.47-3h1.15l-2,3.88,2.08,3.94h-1.17L861,433.2l-1.51,3.05h-1.17l2.09-3.94-2-3.88h1.15Z" transform="translate(-851 -424)"/><path class="cls-2" d="M865.88,433.19v3.06h-1v-7.82h2.49a2.26,2.26,0,0,1,1.71.65,2.41,2.41,0,0,1,.62,1.74,2.39,2.39,0,0,1-.59,1.74,2.3,2.3,0,0,1-1.67.63h-1.58Zm0-.84h1.51a1.27,1.27,0,0,0,1-.39,1.64,1.64,0,0,0,.35-1.12,1.69,1.69,0,0,0-.36-1.13,1.23,1.23,0,0,0-1-.42h-1.51v3.07Z" transform="translate(-851 -424)"/><path class="cls-2" d="M872,435.41h3.07v0.84H871v-7.82h1v7Z" transform="translate(-851 -424)"/><path class="cls-2" d="M879.32,429.27h-2.06v7h-1v-7h-2.05v-0.84h5.09v0.84Z" transform="translate(-851 -424)"/></svg>