<svg version="1.1" id="Layer_1" xmlns="http://www.w3.org/2000/svg" xmlns:xlink="http://www.w3.org/1999/xlink" x="0px" y="0px"
	 viewBox="-176 364 223 57" enable-background="new -176 364 223 57" xml:space="preserve">
<g>
	<polygon id="svg_1" fill="#DA1A32" points="-134.7,387.8 -122.3,387.8 -122.3,389.9 -132.4,389.9 -132.4,394.6 -122.8,394.6 
		-122.8,396.7 -132.4,396.7 -132.4,403.8 -134.7,403.8 	"/>
	<path id="svg_2" fill="#DA1A32" d="M-119.9,387.7h2.3v2.4h-2.3V387.7z M-119.9,392.1h2.3v11.7h-2.3V392.1z"/>
	<g id="svg_3">
		<path id="svg_4" fill="#DA1A32" d="M-113.8,392.1h2.3v2.2h0.1c1-1.8,2.5-2.5,4-2.5c0.5,0,0.9,0,1.3,0.2v2.4
			c-0.5-0.2-1-0.3-1.6-0.3c-2.3,0-3.7,1.3-3.7,3.8v6h-2.3L-113.8,392.1C-113.7,392.1-113.8,392.1-113.8,392.1z"/>
		<path id="svg_5" fill="#DA1A32" d="M-103.2,398.6c0.2,2.4,2.3,3.7,4.3,3.7c1.3,0,3-0.4,3.8-2.1h2.3c-1.1,2.9-3.7,4-6.1,4
			c-4.6,0-6.8-2.9-6.8-6.2s2.3-6.2,6.8-6.2c3.1,0,6.3,1.8,6.3,6.7v0.3L-103.2,398.6C-103.2,398.7-103.2,398.6-103.2,398.6z
			 M-94.7,396.8c-0.3-2.2-2-3.3-4.1-3.3c-2.1,0-3.9,1.2-4.2,3.3H-94.7L-94.7,396.8z"/>
		<polygon id="svg_6" fill="#000014" points="-89.6,387.8 -76.8,387.8 -76.8,389.9 -87.3,389.9 -87.3,394.5 -77.1,394.5 
			-77.1,396.6 -87.3,396.6 -87.3,401.8 -76.6,401.8 -76.6,403.8 -89.6,403.8 		"/>
		<path id="svg_7" fill="#000014" d="M-64.9,392.1h2.5l-6.2,13.8c-1.1,2.5-2,2.9-4.1,2.9c-0.5,0-1.1-0.1-1.7-0.1v-1.9
			c0.4,0,0.8,0.1,1.3,0.1c1.4,0,1.7-0.3,2.4-1.8l0.5-1l-5.4-12h2.6l4,9.3L-64.9,392.1L-64.9,392.1z"/>
		<path id="svg_8" fill="#000014" d="M-59.5,398.6c0.2,2.4,2.3,3.7,4.3,3.7c1.3,0,3-0.4,3.8-2.1h2.3c-1.1,2.9-3.7,4-6.1,4
			c-4.6,0-6.8-2.9-6.8-6.2s2.3-6.2,6.8-6.2c3.1,0,6.3,1.8,6.3,6.7v0.3L-59.5,398.6C-59.5,398.7-59.5,398.6-59.5,398.6z M-51.1,396.8
			c-0.3-2.2-2-3.3-4.1-3.3s-3.9,1.2-4.2,3.3H-51.1z"/>
		<path id="svg_9" fill="#DA1A32" d="M-153,372.3c0.8,2.9,3.6,4.2,2.3,7.6c-0.7,1.8-2.9,3.6-1.4,6c-0.4,0.3-1-0.8-1-1.3
			c-0.4-2.2,1.4-4.9,1.4-7.2C-151.8,375.3-153.3,374.4-153,372.3"/>
		<path id="svg_10" fill="#000014" d="M-148.1,391.8c-1.6-1.3-5.3-1.4-6.8,0c-3.6,3.1-0.4,9.7,5.8,8.3c-5,3-12.1-1.3-10.1-8.1
			c-3.6,1-6.8,2.3-9.9,3.8c3.6,4.5,9.1,7.1,16.6,7.7c-9.6,0.7-14.5-4.3-20.4-7.6c5-2.6,11.3-7.8,19.1-7.2
			C-151.4,389-148.8,389.9-148.1,391.8"/>
		<path id="svg_11" fill="#DA1A32" d="M-149.2,384.3c-0.5,0.6-1,1.2-1.7,1.5c1-1.2,0.2-5.3,2.2-5.8c-0.3,4.1,2.9,5.5,5.2,7.9
			c1.8,2,3.8,4.2,3.4,8.4c-0.5,4.5-5,6.2-8.9,7.1c3.1-1.4,6.9-2.5,7.4-6.2C-140.8,390.8-146.8,388-149.2,384.3"/>
		<path id="svg_12" fill="#DA1A32" d="M-146,390.7c1.9,1.9,2.9,5.6,0,7.6c-1.8,1.3-4.2,0.8-5.3-0.3c-0.7-0.7-0.8-1.6-0.7-2.3
			c0.3-1.3,1.8-2.6,2.9-1.6c-1-0.8-2.9,1.6-1.2,2.6c0.2,0.1,0.7,0.2,0.7,0.2c2.5,0.1,4.8-2.7,2.9-5.7c-0.3-0.4-0.5-0.9-1-1.3
			c0,0-0.8-1-0.3-0.7c0.3,0.2,0.5,0.3,0.7,0.3S-146.2,390.3-146,390.7"/>
		<polygon id="svg_13" fill="#000014" points="-49.7,390.6 -49.7,390.4 -48.4,390.4 -48.4,390.6 -49.1,390.6 -49.1,392.1 
			-49.2,392.1 -49.2,390.6 		"/>
		<polygon id="svg_14" fill="#000014" points="-48,390.4 -47.5,391.8 -47,390.4 -46.6,390.4 -46.6,392.1 -46.8,392.1 -46.8,390.7 
			-46.9,390.7 -47.3,392.1 -47.6,392.1 -48.1,390.7 -48.1,390.7 -48.1,392.1 -48.3,392.1 -48.3,390.4 		"/>
	</g>
	<polygon id="svg_15" fill="#79A1BE" points="14.9,421 -9.6,421 22.2,364.1 46.7,364.1 	"/>
	<polygon id="svg_16" fill="#ED1C24" points="-9.6,421 -12.9,421 8.1,385.6 10.7,385.5 	"/>
</g>
</svg>
